<svg width="85" height="85" viewBox="0 0 85 85" fill="none" xmlns="http://www.w3.org/2000/svg">
<path d="M70.6306 40.4393C70.6306 34.2692 65.6114 29.2534 59.4447 29.2534C53.2746 29.2534 48.2556 34.2726 48.2556 40.4393C48.2556 44.5929 50.548 48.385 54.2386 50.3346L55.1296 50.8039L54.1594 51.0829C53.1575 51.3714 52.1809 51.7392 51.2615 52.1736L50.8715 52.3575L50.7098 51.958C49.451 48.8413 46.4706 46.8279 43.1223 46.8279C40.2339 46.8279 37.5262 48.3879 36.0581 50.899L35.8711 51.2192L35.535 51.0607C34.3903 50.5153 33.1919 50.0778 31.9744 49.7607L30.9027 49.4785L31.9015 48.9997C36.017 47.0308 38.6772 42.8296 38.6772 38.2952C38.6772 31.7478 33.3505 26.421 26.803 26.421C20.2555 26.421 14.9288 31.7477 14.9288 38.2952C14.9288 42.8292 17.589 47.0338 21.7046 49.0022L22.7033 49.4809L21.6317 49.7631C12.6528 52.1126 6.38086 60.2355 6.38086 69.5164V70.8449H29.9166L29.7327 71.3807C29.2254 72.8677 28.9685 74.3992 28.9685 75.9275V77.256H57.2729V75.9275C57.2729 74.3961 57.0161 72.8678 56.5088 71.3807L56.3249 70.8449L78.6211 70.8417V69.5132C78.6211 61.0092 72.9076 53.4288 64.7242 51.079L63.7572 50.7999L64.6482 50.3307C68.3388 48.3839 70.6312 44.5918 70.6312 40.4378L70.6306 40.4393ZM43.1217 49.4856C46.1718 49.4856 48.6513 51.965 48.6513 55.0152C48.6513 58.0654 46.1718 60.5448 43.1217 60.5448C40.0715 60.5448 37.5921 58.0654 37.5921 55.0152C37.5921 51.9682 40.0715 49.4856 43.1217 49.4856ZM17.5819 38.2965C17.5819 33.2139 21.7165 29.0797 26.7986 29.0797C31.8808 29.0797 36.0154 33.2143 36.0154 38.2965C36.0154 43.379 31.8808 47.5132 26.7986 47.5132C21.7193 47.5132 17.5819 43.3786 17.5819 38.2965ZM31.2792 68.1893H9.07787L9.12226 67.7422C10.0291 58.627 17.6287 51.7528 26.7984 51.7528C29.6012 51.7528 32.2836 52.3901 34.7757 53.6457L35.0294 53.7725L34.9977 54.0547C34.9565 54.4066 34.9374 54.7205 34.9374 55.0154C34.9374 57.7612 36.3103 60.3135 38.6122 61.8386L39.2971 62.292L38.5202 62.5583C35.6349 63.5539 33.1047 65.4912 31.399 68.0086L31.2792 68.1893ZM31.6913 74.6003L31.7643 74.1311C32.6362 68.6015 37.519 64.4322 43.1214 64.4322C48.7238 64.4322 53.6035 68.6016 54.4753 74.1311L54.5482 74.6003H31.6913ZM75.8683 67.7422L75.9158 68.1925L54.9645 68.1893L54.8441 68.0117C53.1382 65.4942 50.608 63.5601 47.7228 62.5614L46.946 62.2951L47.6308 61.8417C49.8028 60.4022 51.1693 57.9893 51.2866 55.3894L51.2961 55.1611L51.4959 55.0501C53.9373 53.7058 56.683 52.9923 59.4416 52.9923C67.9042 52.9955 74.9651 59.3337 75.8685 67.7423L75.8683 67.7422ZM59.4413 48.9719C54.736 48.9719 50.9089 45.145 50.9089 40.4395C50.9089 35.734 54.7358 31.907 59.4413 31.907C64.1468 31.907 67.9738 35.734 67.9738 40.4395C67.9738 45.145 64.1468 48.9719 59.4413 48.9719Z" fill="#3B7346"/>
<path d="M44.1462 9.09649L43.9179 9.25503L43.6896 9.09649C40.6395 6.99755 36.524 7.37799 33.9015 10.0001C30.9052 12.9996 30.9052 17.876 33.9015 20.8751L43.8349 30.8118L43.9174 30.7294L43.9998 30.8118L53.9365 20.8751C56.9328 17.8789 56.9328 12.9993 53.9365 10.0001C51.3143 7.37799 47.1957 6.99755 44.1459 9.09649H44.1462ZM52.057 18.995L44.0004 27.0517L43.9179 26.9692L43.8355 27.0517L35.7757 18.995C33.813 17.0324 33.813 13.8395 35.7757 11.8769C36.7237 10.9257 37.9888 10.4057 39.3363 10.4057C40.6839 10.4057 41.9457 10.9289 42.8969 11.8769L43.9179 12.901L44.9388 11.8769C46.9015 9.91427 50.0975 9.91744 52.0569 11.8769C54.0196 13.8396 54.0196 17.0324 52.0569 18.995H52.057Z" fill="#3B7346"/>
</svg>
